<svg id="Capa_1" data-name="Capa 1" xmlns="http://www.w3.org/2000/svg" viewBox="0 0 360.35 252.52"><defs><style>.cls-1{fill:#bf0811;}.cls-2{font-size:90.56px;}.cls-2,.cls-6{fill:#211915;font-family:MyriadPro-Regular, Myriad Pro;}.cls-3{letter-spacing:-0.01em;}.cls-4{letter-spacing:0em;}.cls-5{letter-spacing:-0.01em;}.cls-6{font-size:48.56px;}.cls-7{letter-spacing:-0.01em;}.cls-8{letter-spacing:0em;}.cls-9{letter-spacing:-0.01em;}</style></defs><title>LogoHor</title><path class="cls-1" d="M428.6,191.49a9,9,0,1,0-5.8,1.73l3.51,33a3,3,0,0,0,3.28,2.65h0a3,3,0,0,0,2.64-3.28Z" transform="translate(-142.67 -161.17)"/><path class="cls-1" d="M473.58,185.13a9,9,0,1,0-13.09,7.94l-6.88,32a3,3,0,1,0,5.83,1.25l7-32.36A9,9,0,0,0,473.58,185.13Z" transform="translate(-142.67 -161.17)"/><path class="cls-1" d="M451.08,170.13a9,9,0,1,0-11.86,8.46V226a3,3,0,0,0,3,3h1.4a3,3,0,0,0,3-3V177.89A8.93,8.93,0,0,0,451.08,170.13Z" transform="translate(-142.67 -161.17)"/><path class="cls-1" d="M503,279.46c-.27-5.92-4.41-15.83-4.41-15.83s-6.9-12-17.58-20.13c-8-6.16-24.46-8.61-38.86-9.1-13.06.49-27.93,2.94-35.21,9.1-9.67,8.17-15.92,20.13-15.92,20.13s-3.75,9.91-4,15.83-.58,28.87,3.75,35.79,5.83,11.17,7.33,11.5,6.09,1.92,8.75,0,9.92-3.83,18.84-13.58,11.25-16,13.66-17.34a6.16,6.16,0,0,1,2.8-.59,7.36,7.36,0,0,1,3.08.59c2.66,1.34,5.24,7.59,15.08,17.34s26.58,17.41,30,14.51c1.28-1.1,5.14-4.76,8.59-12.43C501.91,308.44,503.26,285.38,503,279.46Zm-81.23,2.62a6.5,6.5,0,1,1,6.5-6.5A6.5,6.5,0,0,1,421.75,282.08Zm42.83,0a6.5,6.5,0,1,1,6.5-6.5A6.5,6.5,0,0,1,464.58,282.08Z" transform="translate(-142.67 -161.17)"/><path class="cls-1" d="M482.25,333.63c-15-5.44-29-21-32.17-24.5a77.53,77.53,0,0,1-4.55-6.69c-1.3-2.24-4.1-1.46-5,0-7.94,12.15-28.83,30.73-35,32.31-1.87.48-2.7,2.73-2.27,4.61.89,3.91,2.39,10.22,3.39,13,1.5,4.17,10.84,20.67,14,26s3.92,4.75,8.5,18c4.23,12.23,6.63,14.5,8.79,16.21a4,4,0,0,0,1.89.82,3.5,3.5,0,0,0,1.49.33c11.77,0,9.75-.27,9.75-.27a15.41,15.41,0,0,0,1.08-1.23,1,1,0,0,0,.13-.16c1.86-2.3,5.56-7.61,9-17,2.81-7.56,5.68-15.35,6.75-18.06,2.29-5.82,11.71-20.5,13.23-24.67.89-2.43,2.17-7.57,3.08-11.43C485,338.17,484.88,334.58,482.25,333.63Zm-48.94,19.1a2.42,2.42,0,0,1-2.42,2.43h0a1.18,1.18,0,0,1-1.18-1.18c0-3.39-.16-13.07-1.63-15.07-1.71-2.35-.41-6,2.79-5.76l1,.32a3.68,3.68,0,0,1,1.47,3.34Zm26.75-13.82c-1.44,2-1.6,11.68-1.61,15.07a1.17,1.17,0,0,1-1.16,1.18h0a2.4,2.4,0,0,1-2.41-2.41V336.81a3.68,3.68,0,0,1,1.45-3.33l1-.33C460.47,333,461.76,336.56,460.06,338.91Z" transform="translate(-142.67 -161.17)"/><text class="cls-2" transform="translate(0 169.1)"><tspan class="cls-3">C</tspan><tspan class="cls-4" x="51.53" y="0">os</tspan><tspan class="cls-5" x="137.11" y="0">c</tspan><tspan x="177.14" y="0">o</tspan></text><text class="cls-6" transform="translate(76.63 209.29)"><tspan class="cls-7">C</tspan><tspan x="27.82" y="0">a</tspan><tspan class="cls-8" x="51.23" y="0">r</tspan><tspan x="66.86" y="0">a</tspan><tspan class="cls-9" x="90.26" y="0">c</tspan><tspan x="111.73" y="0">ol</tspan></text></svg>