<svg xmlns="http://www.w3.org/2000/svg" viewBox="0 0 650.5 341"><defs><style>.cls-1{fill:#1d987f;}.cls-2{fill:none;stroke:#211915;stroke-miterlimit:10;}.cls-3{font-size:224.11px;fill:#6eaa6f;font-family:Cleanvertising-Black, Cleanvertising;}</style></defs><title>Recurso 3</title><g id="Capa_2" data-name="Capa 2"><g id="Capa_1-2" data-name="Capa 1"><polygon class="cls-1" points="170.5 272.5 170.5 306.5 136.5 340.5 34.5 340.5 0.5 306.5 0.5 34.5 34.5 0.5 136.5 0.5 170.5 34.5 170.5 68.5 153.5 85.5 136.5 68.5 136.5 34.5 34.5 34.5 34.5 306.5 136.5 306.5 136.5 272.5 153.5 255.5 170.5 272.5"/><polygon class="cls-2" points="136.5 68.5 136.5 34.5 34.5 34.5 34.5 306.5 136.5 306.5 136.5 272.5 153.5 255.5 170.5 272.5 170.5 306.5 136.5 340.5 34.5 340.5 0.5 306.5 0.5 34.5 34.5 0.5 136.5 0.5 170.5 34.5 170.5 68.5 153.5 85.5 136.5 68.5"/><text class="cls-3" transform="translate(56.5 241.33) scale(0.43 1)">Cosco Caracol</text></g></g></svg>