<svg id="Capa_1" data-name="Capa 1" xmlns="http://www.w3.org/2000/svg" viewBox="0 0 192.5 329.19"><defs><style>.cls-1{fill:#bf0811;}.cls-2{font-size:76.85px;fill:#211915;font-family:MyriadPro-Regular, Myriad Pro;}.cls-3{letter-spacing:-0.01em;}.cls-4{letter-spacing:0em;}.cls-5{letter-spacing:-0.01em;}</style></defs><title>LogoVer</title><g id="LogoV"><path class="cls-1" d="M350.2,143.62a9,9,0,1,0-5.81,1.73l3.52,33a3,3,0,0,0,3.27,2.65h0a3,3,0,0,0,2.65-3.28Z" transform="translate(-262.5 -113.29)"/><path class="cls-1" d="M395.18,137.25a9,9,0,1,0-13.1,7.94l-6.87,31.95A3,3,0,0,0,381,178.4L388,146A9,9,0,0,0,395.18,137.25Z" transform="translate(-262.5 -113.29)"/><path class="cls-1" d="M372.68,122.25a9,9,0,1,0-11.86,8.47v47.45a3,3,0,0,0,3,3h1.39a3,3,0,0,0,3-3V130A9,9,0,0,0,372.68,122.25Z" transform="translate(-262.5 -113.29)"/><path class="cls-1" d="M424.58,231.58c-.28-5.91-4.42-15.83-4.42-15.83s-6.9-12-17.57-20.12c-8-6.16-24.46-8.62-38.87-9.1-13.05.48-27.92,2.94-35.21,9.1-9.66,8.16-15.91,20.12-15.91,20.12s-3.75,9.92-4,15.83-.59,28.88,3.75,35.8,5.83,11.16,7.33,11.5,6.08,1.91,8.75,0,9.92-3.84,18.83-13.59,11.25-16,13.67-17.33a6,6,0,0,1,2.79-.59,7.15,7.15,0,0,1,3.08.59c2.67,1.33,5.25,7.58,15.09,17.33s26.58,17.42,30,14.52c1.28-1.11,5.14-4.76,8.59-12.43C423.5,260.56,424.86,237.5,424.58,231.58Zm-81.23,2.63a6.5,6.5,0,1,1,6.5-6.5A6.5,6.5,0,0,1,343.35,234.21Zm42.83,0a6.5,6.5,0,1,1,6.5-6.5A6.5,6.5,0,0,1,386.18,234.21Z" transform="translate(-262.5 -113.29)"/><path class="cls-1" d="M403.85,285.75c-15-5.44-29-21-32.17-24.5a72.25,72.25,0,0,1-4.55-6.69c-1.3-2.23-4.1-1.45-5,0-7.94,12.16-28.84,30.73-35,32.32-1.87.48-2.7,2.73-2.27,4.61.89,3.9,2.39,10.22,3.39,13,1.5,4.17,10.83,20.67,14,26s3.92,4.74,8.5,18c4.23,12.23,6.63,14.5,8.79,16.21a4.13,4.13,0,0,0,1.88.82,3.57,3.57,0,0,0,1.5.32c11.77,0,9.75-.27,9.75-.27s.4-.4,1.08-1.22l.13-.17c1.86-2.3,5.56-7.61,9-17,2.81-7.56,5.68-15.36,6.75-18.06,2.29-5.82,11.7-20.5,13.23-24.67.89-2.43,2.17-7.58,3.08-11.44C406.55,290.3,406.48,286.71,403.85,285.75Zm-48.94,19.11a2.42,2.42,0,0,1-2.42,2.42h0a1.17,1.17,0,0,1-1.18-1.17c0-3.39-.17-13.08-1.63-15.08-1.72-2.35-.41-6,2.79-5.76l1,.33a3.69,3.69,0,0,1,1.47,3.34ZM381.66,291c-1.45,2-1.6,11.69-1.61,15.08a1.17,1.17,0,0,1-1.17,1.17h0a2.41,2.41,0,0,1-2.41-2.41V288.94a3.68,3.68,0,0,1,1.45-3.34l1-.33C382.07,285.07,383.35,288.68,381.66,291Z" transform="translate(-262.5 -113.29)"/></g><text class="cls-2" transform="translate(0 309.98)"><tspan class="cls-3">C</tspan><tspan class="cls-4" x="43.73" y="0">os</tspan><tspan class="cls-5" x="116.34" y="0">c</tspan><tspan x="150.31" y="0">o</tspan></text></svg>